<svg xmlns="http://www.w3.org/2000/svg" viewBox="0 0 512 512">
  <defs>
    <linearGradient id="bgGrad" x1="0" y1="0" x2="0" y2="512" gradientUnits="userSpaceOnUse">
      <stop offset="0" stop-color="#F97316"/>
      <stop offset="1" stop-color="#C2410C"/>
    </linearGradient>
  </defs>
  <rect width="512" height="512" rx="116" fill="url(#bgGrad)"/>
  <path fill="#FFFFFF" d="M362.7 202.7c0-37.5-30.4-68-68-68-17.3 0-33 6.5-45.1 17.2-12.1-23.1-36.8-39.2-65.6-39.2-40.4 0-73.2 32.8-73.2 73.2 0 3.8.3 7.6.9 11.3C89.5 205.5 73.3 226.7 73.3 252c0 42.1 34 76 76.1 76h4.5l5.5 45.4v.1c1.5 12 11.6 21.2 23.7 21.2h145.8c12.1 0 22.2-9.2 23.7-21.2v-.1l5.5-45.4h4.5c42.1 0 76.1-33.9 76.1-76 0-36.3-25.5-66.9-59.5-74.4-.1-1.6-.2-3.2-.2-4.9zm-93.5 160H167.3l-3-24.8h183.4l-3 24.8zm-119.9-106.3c15.6 0 29.8-8.2 37.6-21.6 8.3 15.3 24 24.5 41.5 24.5 17.5 0 33.2-9.2 41.5-24.5 7.8 13.4 22.1 21.6 37.6 21.6 2.1 0 4.1-.2 6.1-.5v8.5c0 23.2-18.8 42-42 42H168.3c-23.2 0-42-18.8-42-42v-8.5c2 .3 4 .5 6.1 .5z"/>
</svg>
